# xmcd CD database file
#
# Track frame offsets:
#	150
#	20838
#	50069
#	70415
#	132266
#	161410
#	178351
#	207174
#	236587
#	263012
#	283969
#	304887
#
# Disc length: 4426 seconds
#
# Revision: 0
# Processed by: cddbd v1.5.2PL0 Copyright (c) Steve Scherf et al.
# Submitted via: CDex 1.51
#
DISCID=bb11480c
DTITLE=Davy Knowles and Back Door Slam - Live From Melbourne Australia
DYEAR=2011
DGENRE=Blues
TTITLE0=Riverbed
TTITLE1=Coming Up For Air
TTITLE2=Messin With The Kid
TTITLE3=Almost Out My Hair
TTITLE4=Come Home
TTITLE5=This Old Bridge
TTITLE6=Gotta Leave
TTITLE7=Tear Down The Walls
TTITLE8=Keep Searchin
TTITLE9=Outside Woman Blues
TTITLE10=Roll Away
TTITLE11=In A Little While
EXTD=YEAR: 2011
EXTT0=
EXTT1=
EXTT2=
EXTT3=
EXTT4=
EXTT5=
EXTT6=
EXTT7=
EXTT8=
EXTT9=
EXTT10=
EXTT11=
PLAYORDER=
